<svg width="62" height="73" viewBox="0 0 62 73" fill="none" xmlns="http://www.w3.org/2000/svg">
<g id="Vector" filter="url(#filter0_d_63_1071)">
<path d="M4.07703 39.5388C4.07703 36.5762 4.94903 33.1758 6.69303 29.3378C8.43703 25.4998 10.6897 21.7628 13.451 18.1942C19.119 11.2588 24.0604 6.00684 28.2024 2.47184L30.9274 0.0478363C31.8357 0.92317 32.853 1.73117 33.943 2.47184C35.4327 3.88584 37.7217 6.20884 40.7737 9.50817C43.8257 12.8075 46.478 15.7365 48.658 18.4298C51.2377 21.8302 53.454 25.4998 55.2344 29.3715C57.0147 33.2432 57.923 36.6435 57.923 39.5725C57.923 42.9392 57.2327 46.1375 55.8157 49.2012C54.3987 52.2648 52.5094 54.9245 50.1114 57.1465C47.7134 59.3685 44.843 61.1528 41.5004 62.4658C38.1577 63.7788 34.6334 64.4522 30.9274 64.4522C27.294 64.4522 23.8424 63.8125 20.536 62.5332C17.2297 61.2538 14.3594 59.5368 11.9614 57.3148C9.56336 55.1265 7.63769 52.4668 6.22069 49.4032C4.80369 46.3395 4.07703 43.0402 4.07703 39.5388ZM12.2884 29.6745C12.2884 32.4688 12.906 34.6908 14.1777 36.3742C15.4494 38.0238 17.375 38.8655 19.9547 38.8655C22.5707 38.8655 24.4964 38.0238 25.8044 36.3742C27.076 34.7245 27.73 32.5025 27.7664 29.6745C27.73 26.8465 27.076 24.6245 25.8044 22.9412C24.5327 21.2915 22.5707 20.4498 19.9547 20.4498C17.375 20.4498 15.4494 21.2915 14.1777 22.9412C12.906 24.6245 12.2884 26.8465 12.2884 29.6745ZM17.9927 29.6745V28.4962C17.9927 28.2268 18.029 27.8565 18.0654 27.3852C18.1017 26.9138 18.138 26.5435 18.247 26.3078C18.356 26.0722 18.4287 25.7692 18.574 25.4998C18.7194 25.2305 18.901 24.9948 19.119 24.8938C19.3734 24.7592 19.6277 24.6918 19.9547 24.6918C20.4634 24.6918 20.863 24.8265 21.1537 25.0958C21.4444 25.3652 21.6624 25.8028 21.7714 26.3752C21.8804 26.9812 21.953 27.4525 21.9894 27.8902C22.0257 28.3278 22.0257 28.9002 22.0257 29.6408C22.0257 30.4152 22.0257 30.9875 21.9894 31.3915C21.953 31.7955 21.8804 32.3005 21.7714 32.9065C21.6624 33.4788 21.4444 33.9165 21.1537 34.1858C20.863 34.4552 20.4634 34.5898 19.9547 34.5898C19.6277 34.5898 19.3734 34.5225 19.119 34.3878C18.8646 34.2532 18.671 34.038 18.574 33.7818C18.4287 33.5125 18.3197 33.2095 18.247 32.9738C18.1744 32.7045 18.1017 32.3342 18.0654 31.8965C18.029 31.4252 17.9927 31.0548 17.9927 30.8192V29.6745ZM20.1364 55.7662H24.9324L43.0627 19.6082H38.1577L20.1364 55.7662ZM35.7597 45.6998C35.796 48.5278 36.4864 50.7498 37.758 52.4332C39.0297 54.0828 40.9917 54.9245 43.5714 54.9245C46.1874 54.9245 48.113 54.0828 49.3847 52.4332C50.6564 50.7835 51.274 48.5278 51.3104 45.6998C51.274 42.8718 50.6564 40.6498 49.3847 39.0002C48.113 37.3505 46.1874 36.5088 43.5714 36.5088C40.9917 36.5088 39.0297 37.3505 37.758 39.0002C36.45 40.6498 35.796 42.8718 35.7597 45.6998ZM41.464 45.6998C41.464 44.9255 41.464 44.3532 41.5004 43.9492C41.5367 43.5452 41.6094 43.0402 41.7184 42.4342C41.8274 41.8282 42.0454 41.4242 42.336 41.1548C42.6267 40.8855 43.0264 40.7508 43.535 40.7508C43.862 40.7508 44.1527 40.8182 44.407 40.9528C44.6614 41.0875 44.843 41.2895 44.9884 41.5925C45.1337 41.8955 45.2427 42.1648 45.3517 42.4005C45.4607 42.6362 45.497 43.0065 45.5334 43.4778L45.5697 44.5552V46.8782L45.5334 47.9555L45.3517 49.0328L44.9884 49.8408L44.407 50.4805L43.535 50.6825C43.0264 50.6825 42.6267 50.5478 42.336 50.2785C42.0454 50.0092 41.8274 49.5715 41.7184 48.9992C41.6094 48.3932 41.5367 47.8882 41.5004 47.4842C41.464 47.0802 41.464 46.4742 41.464 45.6998Z" fill="#2CE6FF"/>
</g>
<defs>
<filter id="filter0_d_63_1071" x="0.0770264" y="0.0478363" width="61.8459" height="72.4043" filterUnits="userSpaceOnUse" color-interpolation-filters="sRGB">
<feFlood flood-opacity="0" result="BackgroundImageFix"/>
<feColorMatrix in="SourceAlpha" type="matrix" values="0 0 0 0 0 0 0 0 0 0 0 0 0 0 0 0 0 0 127 0" result="hardAlpha"/>
<feOffset dy="4"/>
<feGaussianBlur stdDeviation="2"/>
<feComposite in2="hardAlpha" operator="out"/>
<feColorMatrix type="matrix" values="0 0 0 0 0 0 0 0 0 0 0 0 0 0 0 0 0 0 0.25 0"/>
<feBlend mode="normal" in2="BackgroundImageFix" result="effect1_dropShadow_63_1071"/>
<feBlend mode="normal" in="SourceGraphic" in2="effect1_dropShadow_63_1071" result="shape"/>
</filter>
</defs>
</svg>
