<svg width="29" height="41" viewBox="0 0 29 41" fill="none" xmlns="http://www.w3.org/2000/svg">
<path id="Vector" d="M14.375 40.125C14.375 40.125 0.375 21.865 0.375 14.125C0.375 12.2865 0.737121 10.466 1.44069 8.76743C2.14425 7.06887 3.17548 5.52553 4.4755 4.2255C5.77553 2.92548 7.31887 1.89425 9.01743 1.19069C10.716 0.487121 12.5365 0.125 14.375 0.125C16.2135 0.125 18.034 0.487121 19.7326 1.19069C21.4311 1.89425 22.9745 2.92548 24.2745 4.2255C25.5745 5.52553 26.6057 7.06887 27.3093 8.76743C28.0129 10.466 28.375 12.2865 28.375 14.125C28.375 21.865 14.375 40.125 14.375 40.125ZM14.375 18.125C15.4359 18.125 16.4533 17.7036 17.2034 16.9534C17.9536 16.2033 18.375 15.1859 18.375 14.125C18.375 13.0641 17.9536 12.0467 17.2034 11.2966C16.4533 10.5464 15.4359 10.125 14.375 10.125C13.3141 10.125 12.2967 10.5464 11.5466 11.2966C10.7964 12.0467 10.375 13.0641 10.375 14.125C10.375 15.1859 10.7964 16.2033 11.5466 16.9534C12.2967 17.7036 13.3141 18.125 14.375 18.125Z" fill="#5C469C"/>
</svg>
