<svg width="67" height="67" viewBox="0 0 67 67" fill="none" xmlns="http://www.w3.org/2000/svg">
<g id="Group">
<path id="Vector" d="M20.1 16.693C19.2115 16.693 18.3594 17.046 17.7312 17.6742C17.1029 18.3025 16.75 19.1546 16.75 20.043C16.75 20.9315 17.1029 21.7836 17.7312 22.4119C18.3594 23.0401 19.2115 23.393 20.1 23.393H46.9C47.7885 23.393 48.6406 23.0401 49.2688 22.4119C49.8971 21.7836 50.25 20.9315 50.25 20.043C50.25 19.1546 49.8971 18.3025 49.2688 17.6742C48.6406 17.046 47.7885 16.693 46.9 16.693H20.1ZM16.75 33.5C16.75 32.6115 17.1029 31.7594 17.7312 31.1312C18.3594 30.5029 19.2115 30.15 20.1 30.15H46.9C47.7885 30.15 48.6406 30.5029 49.2688 31.1312C49.8971 31.7594 50.25 32.6115 50.25 33.5C50.25 34.3885 49.8971 35.2406 49.2688 35.8688C48.6406 36.4971 47.7885 36.85 46.9 36.85H20.1C19.2115 36.85 18.3594 36.4971 17.7312 35.8688C17.1029 35.2406 16.75 34.3885 16.75 33.5ZM20.1 43.607C19.2115 43.607 18.3594 43.9599 17.7312 44.5881C17.1029 45.2164 16.75 46.0685 16.75 46.957C16.75 47.8454 17.1029 48.6975 17.7312 49.3258C18.3594 49.954 19.2115 50.307 20.1 50.307H46.9C47.7885 50.307 48.6406 49.954 49.2688 49.3258C49.8971 48.6975 50.25 47.8454 50.25 46.957C50.25 46.0685 49.8971 45.2164 49.2688 44.5881C48.6406 43.9599 47.7885 43.607 46.9 43.607H20.1Z" fill="white"/>
<path id="Vector_2" fill-rule="evenodd" clip-rule="evenodd" d="M67 33.5C67 52.002 52.002 67 33.5 67C14.998 67 0 52.002 0 33.5C0 14.998 14.998 0 33.5 0C52.002 0 67 14.998 67 33.5ZM60.3 33.5C60.3 40.6078 57.4764 47.4245 52.4505 52.4505C47.4245 57.4764 40.6078 60.3 33.5 60.3C26.3922 60.3 19.5755 57.4764 14.5495 52.4505C9.52356 47.4245 6.7 40.6078 6.7 33.5C6.7 26.3922 9.52356 19.5755 14.5495 14.5495C19.5755 9.52356 26.3922 6.7 33.5 6.7C40.6078 6.7 47.4245 9.52356 52.4505 14.5495C57.4764 19.5755 60.3 26.3922 60.3 33.5Z" fill="white"/>
</g>
</svg>
