<svg width="50" height="50" viewBox="0 0 50 50" fill="none" xmlns="http://www.w3.org/2000/svg">
<path d="M40.375 6H9.125C8.2962 6 7.50134 6.32924 6.91529 6.91529C6.32924 7.50134 6 8.2962 6 9.125V40.375C6 41.2038 6.32924 41.9987 6.91529 42.5847C7.50134 43.1708 8.2962 43.5 9.125 43.5H40.375C41.2038 43.5 41.9987 43.1708 42.5847 42.5847C43.1708 41.9987 43.5 41.2038 43.5 40.375V9.125C43.5 8.2962 43.1708 7.50134 42.5847 6.91529C41.9987 6.32924 41.2038 6 40.375 6ZM35.2305 33.0195C35.3756 33.1647 35.4908 33.337 35.5694 33.5267C35.6479 33.7164 35.6884 33.9197 35.6884 34.125C35.6884 34.3303 35.6479 34.5336 35.5694 34.7233C35.4908 34.913 35.3756 35.0853 35.2305 35.2305C35.0853 35.3756 34.913 35.4908 34.7233 35.5694C34.5336 35.6479 34.3303 35.6884 34.125 35.6884C33.9197 35.6884 33.7164 35.6479 33.5267 35.5694C33.337 35.4908 33.1647 35.3756 33.0195 35.2305L24.75 26.959L16.4805 35.2305C16.1873 35.5237 15.7896 35.6884 15.375 35.6884C14.9604 35.6884 14.5627 35.5237 14.2695 35.2305C13.9763 34.9373 13.8116 34.5396 13.8116 34.125C13.8116 33.7104 13.9763 33.3127 14.2695 33.0195L22.541 24.75L14.2695 16.4805C13.9763 16.1873 13.8116 15.7896 13.8116 15.375C13.8116 14.9604 13.9763 14.5627 14.2695 14.2695C14.5627 13.9763 14.9604 13.8116 15.375 13.8116C15.7896 13.8116 16.1873 13.9763 16.4805 14.2695L24.75 22.541L33.0195 14.2695C33.3127 13.9763 33.7104 13.8116 34.125 13.8116C34.5396 13.8116 34.9373 13.9763 35.2305 14.2695C35.5237 14.5627 35.6884 14.9604 35.6884 15.375C35.6884 15.7896 35.5237 16.1873 35.2305 16.4805L26.959 24.75L35.2305 33.0195Z" fill="black"/>
</svg>
