<svg width="41" height="41" viewBox="0 0 41 41" fill="none" xmlns="http://www.w3.org/2000/svg">
<g id="Group">
<path id="Vector" fill-rule="evenodd" clip-rule="evenodd" d="M7.04177 17.5417C6.45239 17.5417 5.88715 17.7758 5.4704 18.1926C5.05365 18.6093 4.81952 19.1745 4.81952 19.7639V21.9861C4.81952 22.5755 5.05365 23.1407 5.4704 23.5575C5.88715 23.9742 6.45239 24.2084 7.04177 24.2084H9.26402C9.8534 24.2084 10.4186 23.9742 10.8354 23.5575C11.2521 23.1407 11.4863 22.5755 11.4863 21.9861V19.7639C11.4863 19.1745 11.2521 18.6093 10.8354 18.1926C10.4186 17.7758 9.8534 17.5417 9.26402 17.5417H7.04177ZM7.04177 19.7639V21.9861H9.26402V19.7639H7.04177ZM13.7085 19.7639C13.7085 19.1745 13.9427 18.6093 14.3594 18.1926C14.7762 17.7758 15.3414 17.5417 15.9308 17.5417H18.153C18.7424 17.5417 19.3076 17.7758 19.7244 18.1926C20.1411 18.6093 20.3753 19.1745 20.3753 19.7639V21.9861C20.3753 22.5755 20.1411 23.1407 19.7244 23.5575C19.3076 23.9742 18.7424 24.2084 18.153 24.2084H15.9308C15.3414 24.2084 14.7762 23.9742 14.3594 23.5575C13.9427 23.1407 13.7085 22.5755 13.7085 21.9861V19.7639ZM15.9308 19.7639H18.153V21.9861H15.9308V19.7639ZM24.8198 17.5417C24.2304 17.5417 23.6652 17.7758 23.2484 18.1926C22.8317 18.6093 22.5975 19.1745 22.5975 19.7639V21.9861C22.5975 22.5755 22.8317 23.1407 23.2484 23.5575C23.6652 23.9742 24.2304 24.2084 24.8198 24.2084H27.042C27.6314 24.2084 28.1966 23.9742 28.6134 23.5575C29.0301 23.1407 29.2643 22.5755 29.2643 21.9861V19.7639C29.2643 19.1745 29.0301 18.6093 28.6134 18.1926C28.1966 17.7758 27.6314 17.5417 27.042 17.5417H24.8198ZM24.8198 19.7639V21.9861H27.042V19.7639H24.8198ZM4.81952 28.6528C4.81952 28.0634 5.05365 27.4982 5.4704 27.0815C5.88715 26.6647 6.45239 26.4306 7.04177 26.4306H9.26402C9.8534 26.4306 10.4186 26.6647 10.8354 27.0815C11.2521 27.4982 11.4863 28.0634 11.4863 28.6528V30.875C11.4863 31.4644 11.2521 32.0296 10.8354 32.4464C10.4186 32.8631 9.8534 33.0972 9.26402 33.0972H7.04177C6.45239 33.0972 5.88715 32.8631 5.4704 32.4464C5.05365 32.0296 4.81952 31.4644 4.81952 30.875V28.6528ZM9.26402 28.6528V30.875H7.04177V28.6528H9.26402ZM15.9308 26.4306C15.3414 26.4306 14.7762 26.6647 14.3594 27.0815C13.9427 27.4982 13.7085 28.0634 13.7085 28.6528V30.875C13.7085 31.4644 13.9427 32.0296 14.3594 32.4464C14.7762 32.8631 15.3414 33.0972 15.9308 33.0972H18.153C18.7424 33.0972 19.3076 32.8631 19.7244 32.4464C20.1411 32.0296 20.3753 31.4644 20.3753 30.875V28.6528C20.3753 28.0634 20.1411 27.4982 19.7244 27.0815C19.3076 26.6647 18.7424 26.4306 18.153 26.4306H15.9308ZM18.153 28.6528H15.9308V30.875H18.153V28.6528Z" fill="#5C469C"/>
<path id="Vector_2" d="M33.7088 30.3194C33.7088 30.0247 33.5917 29.7421 33.3833 29.5337C33.1749 29.3254 32.8923 29.2083 32.5976 29.2083C32.3029 29.2083 32.0203 29.3254 31.812 29.5337C31.6036 29.7421 31.4865 30.0247 31.4865 30.3194V33.5572L32.9232 34.9939C33.1328 35.1963 33.4134 35.3083 33.7048 35.3057C33.9961 35.3032 34.2748 35.1863 34.4808 34.9803C34.6868 34.7743 34.8037 34.4956 34.8062 34.2043C34.8087 33.913 34.6967 33.6323 34.4943 33.4228L33.7088 32.6372V30.3194Z" fill="#5C469C"/>
<path id="Vector_3" fill-rule="evenodd" clip-rule="evenodd" d="M7.04175 1.98611C7.04175 1.69143 7.15882 1.40881 7.36719 1.20044C7.57557 0.992063 7.85819 0.875 8.15288 0.875C8.44757 0.875 8.73019 0.992063 8.93856 1.20044C9.14694 1.40881 9.264 1.69143 9.264 1.98611V7.54167C9.264 7.83635 9.38107 8.11897 9.58945 8.32734C9.79782 8.53571 10.0804 8.65278 10.3751 8.65278C10.6698 8.65278 10.9524 8.53571 11.1608 8.32734C11.3692 8.11897 11.4863 7.83635 11.4863 7.54167V4.20833H22.5975V1.98611C22.5975 1.69143 22.7146 1.40881 22.9229 1.20044C23.1313 0.992063 23.4139 0.875 23.7086 0.875C24.0033 0.875 24.2859 0.992063 24.4943 1.20044C24.7027 1.40881 24.8198 1.69143 24.8198 1.98611V7.54167C24.8198 7.83635 24.9368 8.11897 25.1452 8.32734C25.3536 8.53571 25.6362 8.65278 25.9309 8.65278C26.2256 8.65278 26.5082 8.53571 26.7166 8.32734C26.9249 8.11897 27.042 7.83635 27.042 7.54167V4.20833H30.3754C31.2595 4.20833 32.1073 4.55952 32.7324 5.18464C33.3576 5.80977 33.7088 6.65761 33.7088 7.54167V25.3972C35.655 25.6785 37.4224 26.6864 38.6555 28.2181C39.8886 29.7499 40.4958 31.6918 40.355 33.6531C40.2142 35.6144 39.3358 37.4497 37.8966 38.7896C36.4573 40.1295 34.5641 40.8746 32.5976 40.875C31.3436 40.8758 30.108 40.5731 28.9964 39.9926C27.8848 39.4121 26.9302 38.5712 26.2142 37.5417H3.70838C2.82431 37.5417 1.97645 37.1905 1.35132 36.5654C0.726194 35.9402 0.375 35.0924 0.375 34.2083V7.54167C0.375 6.65761 0.726194 5.80977 1.35132 5.18464C1.97645 4.55952 2.82431 4.20833 3.70838 4.20833H7.04175V1.98611ZM24.8198 33.0972C24.8195 31.2267 25.4933 29.4186 26.7177 28.0045C27.9421 26.5903 29.6351 25.6647 31.4865 25.3972V14.2083H2.59725V34.2083C2.59725 34.503 2.71432 34.7856 2.92269 34.994C3.13107 35.2024 3.41369 35.3194 3.70838 35.3194H25.142C24.9277 34.5982 24.8191 33.8496 24.8198 33.0972ZM38.1533 33.0972C38.1533 34.5706 37.5679 35.9837 36.5261 37.0256C35.4842 38.0675 34.0711 38.6528 32.5976 38.6528C31.1242 38.6528 29.7111 38.0675 28.6692 37.0256C27.6273 35.9837 27.042 34.5706 27.042 33.0972C27.042 31.6238 27.6273 30.2107 28.6692 29.1689C29.7111 28.127 31.1242 27.5417 32.5976 27.5417C34.0711 27.5417 35.4842 28.127 36.5261 29.1689C37.5679 30.2107 38.1533 31.6238 38.1533 33.0972Z" fill="#5C469C"/>
</g>
</svg>
