<svg width="37" height="37" viewBox="0 0 37 37" fill="none" xmlns="http://www.w3.org/2000/svg">
<path id="Vector" d="M16.5129 0.5C19.5197 0.499798 22.4659 1.3461 25.0142 2.94204C27.5625 4.53799 29.61 6.81911 30.9224 9.52433C32.2347 12.2296 32.7589 15.2496 32.435 18.2388C32.1111 21.2281 30.9521 24.0657 29.0907 26.427L35.9711 33.3072C36.3143 33.6626 36.5042 34.1384 36.4999 34.6324C36.4956 35.1264 36.2975 35.5989 35.9482 35.9482C35.5989 36.2975 35.1263 36.4956 34.6323 36.4999C34.1384 36.5042 33.6624 36.3143 33.3071 35.9712L26.4266 29.0909C24.421 30.6715 22.0664 31.7495 19.5594 32.2351C17.0524 32.7207 14.4656 32.5997 12.0148 31.8822C9.56403 31.1648 7.32038 29.8716 5.47104 28.1108C3.62169 26.3499 2.22028 24.1723 1.38371 21.7597C0.54715 19.3471 0.299697 16.7694 0.661999 14.2417C1.0243 11.714 1.98585 9.30955 3.46643 7.22903C4.947 5.14851 6.90367 3.45221 9.17319 2.28165C11.4427 1.11109 13.9593 0.500218 16.5129 0.5ZM16.5129 4.26792C13.265 4.26792 10.1501 5.55809 7.85352 7.8546C5.55691 10.1511 4.2667 13.2659 4.2667 16.5136C4.2667 19.7614 5.55691 22.8762 7.85352 25.1727C10.1501 27.4692 13.265 28.7594 16.5129 28.7594C19.7608 28.7594 22.8756 27.4692 25.1722 25.1727C27.4689 22.8762 28.7591 19.7614 28.7591 16.5136C28.7591 13.2659 27.4689 10.1511 25.1722 7.8546C22.8756 5.55809 19.7608 4.26792 16.5129 4.26792Z" fill="#34245D"/>
</svg>
