<svg width="39" height="39" viewBox="0 0 39 39" fill="none" xmlns="http://www.w3.org/2000/svg">
<g id="Mask group">
<mask id="mask0_63_1130" style="mask-type:luminance" maskUnits="userSpaceOnUse" x="0" y="0" width="39" height="39">
<g id="Group">
<g id="Group_2">
<path id="Vector" d="M29.9467 12.2675C31.0094 13.7897 31.7285 15.5248 32.0542 17.3525H36.0417V21.8975H32.0542C31.7285 23.7252 31.0094 25.4602 29.9467 26.9825L32.7675 29.8033L29.5533 33.0175L26.7325 30.1966C25.2103 31.2594 23.4752 31.9785 21.6475 32.3041V36.2916H17.1025V32.3041C15.2748 31.9785 13.5397 31.2594 12.0175 30.1966L9.19666 33.0175L5.98249 29.8033L8.80333 26.9825C7.74061 25.4602 7.02151 23.7252 6.69583 21.8975H2.70833V17.3525H6.69583C7.02151 15.5248 7.74061 13.7897 8.80333 12.2675L5.98249 9.44665L9.19666 6.23248L12.0175 9.05331C13.5397 7.99059 15.2748 7.27149 17.1025 6.94581V2.95831H21.6475V6.94581C23.4752 7.27149 25.2103 7.99059 26.7325 9.05331L29.5533 6.23248L32.7675 9.44665L29.9467 12.2675Z" fill="white" stroke="white" stroke-width="4" stroke-linejoin="round"/>
<path id="Vector_2" d="M19.375 23.7916C20.4801 23.7916 21.5399 23.3527 22.3213 22.5713C23.1027 21.7899 23.5417 20.73 23.5417 19.625C23.5417 18.5199 23.1027 17.4601 22.3213 16.6787C21.5399 15.8973 20.4801 15.4583 19.375 15.4583C18.2699 15.4583 17.2101 15.8973 16.4287 16.6787C15.6473 17.4601 15.2083 18.5199 15.2083 19.625C15.2083 20.73 15.6473 21.7899 16.4287 22.5713C17.2101 23.3527 18.2699 23.7916 19.375 23.7916Z" fill="black" stroke="black" stroke-width="4" stroke-linejoin="round"/>
</g>
</g>
</mask>
<g mask="url(#mask0_63_1130)">
<path id="Vector_3" d="M-0.625 -0.375H39.375V39.625H-0.625V-0.375Z" fill="#5C469C"/>
</g>
</g>
</svg>
