<svg width="24" height="25" viewBox="0 0 24 25" fill="none" xmlns="http://www.w3.org/2000/svg">
<g id="StarIcon" clip-path="url(#clip0_62_561)">
<path id="Vector" d="M10.2904 3.05712L10.2893 3.0592L7.92441 7.82181L2.63694 8.59108C2.28557 8.64104 1.95516 8.78832 1.6831 9.01629C1.41034 9.24485 1.20717 9.54534 1.09668 9.88361C0.986197 10.2219 0.972824 10.5844 1.05808 10.9298C1.14335 11.2753 1.32382 11.59 1.57899 11.838L1.58026 11.8392L5.40272 15.5416L4.50055 20.7709L4.50044 20.7716C4.23134 22.3375 5.87849 23.5076 7.26831 22.7801C7.26859 22.78 7.26887 22.7798 7.26915 22.7797L12 20.3064L16.7306 22.7801L16.7314 22.7805C18.1175 23.5037 19.7697 22.3423 19.4995 20.7723L19.4994 20.7719L18.5973 15.5426L22.419 11.841C22.4192 11.8408 22.4193 11.8406 22.4195 11.8405C22.4196 11.8404 22.4196 11.8403 22.4197 11.8402C22.6758 11.5925 22.8571 11.2778 22.943 10.932C23.029 10.5859 23.0159 10.2226 22.9053 9.88355C22.7947 9.5445 22.591 9.24338 22.3175 9.01455C22.045 8.78654 21.714 8.63947 21.3622 8.58995C21.3609 8.58978 21.3596 8.5896 21.3583 8.58942L16.0755 7.82172L13.7107 3.0592L13.7107 3.05919L13.7096 3.05712C13.551 2.73949 13.307 2.47234 13.005 2.28562C12.703 2.09891 12.355 2 12 2C11.645 2 11.2969 2.09891 10.995 2.28562C10.693 2.47234 10.449 2.73949 10.2904 3.05712Z" fill="#FAFF0F" stroke="white" stroke-width="2" stroke-linecap="round" stroke-linejoin="round"/>
</g>
<defs>
<clipPath id="clip0_62_561">
<rect width="24" height="24" fill="white" transform="translate(0 0.5)"/>
</clipPath>
</defs>
</svg>
