<svg width="106" height="88" viewBox="0 0 106 88" fill="none" xmlns="http://www.w3.org/2000/svg">
<g id="Vector" filter="url(#filter0_d_63_1061)">
<path d="M9.51724 30C8.18659 30 6.91043 29.4732 5.96952 28.5355C5.0286 27.5979 4.5 26.3261 4.5 25C4.5 23.6739 5.0286 22.4021 5.96952 21.4645C6.91043 20.5268 8.18659 20 9.51724 20H49.6552C50.9858 20 52.262 19.4732 53.2029 18.5355C54.1438 17.5979 54.6724 16.3261 54.6724 15C54.6724 13.6739 54.1438 12.4021 53.2029 11.4645C52.262 10.5268 50.9858 10 49.6552 10C48.0395 10.0469 46.5038 10.7107 45.3654 11.8542C44.4136 12.7189 43.1645 13.1857 41.8768 13.158C40.5892 13.1302 39.3615 12.61 38.4481 11.7051C37.5346 10.8002 37.0054 9.57981 36.97 8.29673C36.9345 7.01366 37.3956 5.76614 38.2577 4.8125C41.2831 1.79053 45.3721 0.0639715 49.6552 0C53.6471 0 57.4756 1.58035 60.2983 4.3934C63.1211 7.20644 64.7069 11.0218 64.7069 15C64.7069 18.9782 63.1211 22.7936 60.2983 25.6066C57.4756 28.4196 53.6471 30 49.6552 30H9.51724ZM86.4483 15C82.1594 15.0596 78.0636 16.7865 75.0341 19.8125C74.172 20.7661 73.7109 22.0137 73.7464 23.2967C73.7818 24.5798 74.311 25.8002 75.2244 26.7051C76.1379 27.61 77.3655 28.1302 78.6532 28.158C79.9409 28.1857 81.19 27.7189 82.1418 26.8542C83.2843 25.7067 84.8268 25.0426 86.4483 25C87.7789 25 89.0551 25.5268 89.996 26.4645C90.9369 27.4021 91.4655 28.6739 91.4655 30C91.4655 31.3261 90.9369 32.5979 89.996 33.5355C89.0551 34.4732 87.7789 35 86.4483 35H12.8621C11.5314 35 10.2553 35.5268 9.31434 36.4645C8.37343 37.4021 7.84483 38.6739 7.84483 40C7.84483 41.3261 8.37343 42.5978 9.31434 43.5355C10.2553 44.4732 11.5314 45 12.8621 45H86.4483C90.4402 45 94.2687 43.4196 97.0915 40.6066C99.9142 37.7936 101.5 33.9782 101.5 30C101.5 26.0218 99.9142 22.2064 97.0915 19.3934C94.2687 16.5804 90.4402 15 86.4483 15ZM63.0345 50H16.2069C14.8762 50 13.6001 50.5268 12.6592 51.4645C11.7183 52.4021 11.1897 53.6739 11.1897 55C11.1897 56.3261 11.7183 57.5978 12.6592 58.5355C13.6001 59.4732 14.8762 60 16.2069 60H63.0345C64.3651 60 65.6413 60.5268 66.5822 61.4645C67.5231 62.4021 68.0517 63.6739 68.0517 65C68.0517 66.3261 67.5231 67.5978 66.5822 68.5355C65.6413 69.4732 64.3651 70 63.0345 70C61.4178 69.9525 59.8809 69.2889 58.7406 68.1458C58.2857 67.6426 57.7329 67.2368 57.1159 66.9529C56.4988 66.669 55.8304 66.513 55.151 66.4944C54.4716 66.4757 53.7955 66.5948 53.1637 66.8445C52.532 67.0941 51.9577 67.469 51.4757 67.9465C50.9937 68.424 50.6141 68.9941 50.3599 69.6223C50.1057 70.2504 49.9822 70.9234 49.9968 71.6006C50.0115 72.2777 50.1641 72.9448 50.4453 73.5614C50.7266 74.178 51.1306 74.7312 51.6328 75.1875C54.6593 78.2105 58.75 79.9371 63.0345 80C67.0264 80 70.8549 78.4196 73.6777 75.6066C76.5004 72.7936 78.0862 68.9782 78.0862 65C78.0862 61.0218 76.5004 57.2064 73.6777 54.3934C70.8549 51.5804 67.0264 50 63.0345 50Z" fill="#2CE6FF"/>
</g>
<defs>
<filter id="filter0_d_63_1061" x="0.5" y="0" width="105" height="88" filterUnits="userSpaceOnUse" color-interpolation-filters="sRGB">
<feFlood flood-opacity="0" result="BackgroundImageFix"/>
<feColorMatrix in="SourceAlpha" type="matrix" values="0 0 0 0 0 0 0 0 0 0 0 0 0 0 0 0 0 0 127 0" result="hardAlpha"/>
<feOffset dy="4"/>
<feGaussianBlur stdDeviation="2"/>
<feComposite in2="hardAlpha" operator="out"/>
<feColorMatrix type="matrix" values="0 0 0 0 0 0 0 0 0 0 0 0 0 0 0 0 0 0 0.25 0"/>
<feBlend mode="normal" in2="BackgroundImageFix" result="effect1_dropShadow_63_1061"/>
<feBlend mode="normal" in="SourceGraphic" in2="effect1_dropShadow_63_1061" result="shape"/>
</filter>
</defs>
</svg>
